<?xml version="1.0" encoding="UTF-8" standalone="no"?>
<svg width="367px" height="118px" viewBox="0 0 367 118" version="1.1" xmlns="http://www.w3.org/2000/svg" xmlns:xlink="http://www.w3.org/1999/xlink">
    <!-- Generator: Sketch 3.6.1 (26313) - http://www.bohemiancoding.com/sketch -->
    <title>Typings Logo</title>
    <desc>Created with Sketch.</desc>
    <defs></defs>
    <g id="Page-1" stroke="none" stroke-width="1" fill="none" fill-rule="evenodd">
        <g id="Typewriter" transform="translate(5.000000, 6.000000)" fill="#000000">
            <path d="M79.80075,100.568064 L79.80075,96.519766 C79.80075,96.1070426 79.466625,95.7687447 79.05375,95.7687447 L29.055375,95.7687447 C28.641375,95.7687447 28.305,96.1070426 28.305,96.519766 L28.305,100.568064 C28.305,100.981915 28.64025,101.320213 29.055375,101.320213 L79.05375,101.320213 C79.466625,101.320213 79.80075,100.981915 79.80075,100.568064 L79.80075,100.568064 Z M18.40275,83.4456809 L18.40275,85.5284681 C18.40275,86.3572979 19.07325,87.0305106 19.90125,87.0305106 L21.978,87.0305106 C22.806,87.0305106 23.4765,86.3572979 23.4765,85.5284681 L23.4765,83.4456809 C23.4765,82.6168511 22.806,81.9436383 21.978,81.9436383 L19.90125,81.9436383 C19.07325,81.9436383 18.40275,82.6168511 18.40275,83.4456809 L18.40275,83.4456809 Z M25.032375,83.4456809 L25.032375,85.5284681 C25.032375,86.3572979 25.704,87.0305106 26.530875,87.0305106 L28.60875,87.0305106 C29.435625,87.0305106 30.10725,86.3572979 30.10725,85.5284681 L30.10725,83.4456809 C30.10725,82.6168511 29.435625,81.9436383 28.60875,81.9436383 L26.530875,81.9436383 C25.704,81.9436383 25.032375,82.6168511 25.032375,83.4456809 L25.032375,83.4456809 Z M31.663125,83.4456809 L31.663125,85.5284681 C31.663125,86.3572979 32.333625,87.0305106 33.161625,87.0305106 L35.238375,87.0305106 C36.066375,87.0305106 36.738,86.3572979 36.738,85.5284681 L36.738,83.4456809 C36.738,82.6168511 36.066375,81.9436383 35.238375,81.9436383 L33.161625,81.9436383 C32.333625,81.9436383 31.663125,82.6168511 31.663125,83.4456809 L31.663125,83.4456809 Z M38.29275,83.4456809 L38.29275,85.5284681 C38.29275,86.3572979 38.964375,87.0305106 39.792375,87.0305106 L41.869125,87.0305106 C42.697125,87.0305106 43.367625,86.3572979 43.367625,85.5284681 L43.367625,83.4456809 C43.367625,82.6168511 42.697125,81.9436383 41.869125,81.9436383 L39.792375,81.9436383 C38.964375,81.9436383 38.29275,82.6168511 38.29275,83.4456809 L38.29275,83.4456809 Z M44.9235,83.4456809 L44.9235,85.5284681 C44.9235,86.3572979 45.595125,87.0305106 46.423125,87.0305106 L48.499875,87.0305106 C49.327875,87.0305106 49.9995,86.3572979 49.9995,85.5284681 L49.9995,83.4456809 C49.9995,82.6168511 49.327875,81.9436383 48.499875,81.9436383 L46.423125,81.9436383 C45.594,81.9436383 44.9235,82.6168511 44.9235,83.4456809 L44.9235,83.4456809 Z M51.553125,83.4456809 L51.553125,85.5284681 C51.553125,86.3572979 52.22475,87.0305106 53.05275,87.0305106 L55.1295,87.0305106 C55.9575,87.0305106 56.63025,86.3572979 56.63025,85.5284681 L56.63025,83.4456809 C56.63025,82.6168511 55.9575,81.9436383 55.1295,81.9436383 L53.05275,81.9436383 C52.22475,81.9436383 51.553125,82.6168511 51.553125,83.4456809 L51.553125,83.4456809 Z M58.183875,83.4456809 L58.183875,85.5284681 C58.183875,86.3572979 58.856625,87.0305106 59.682375,87.0305106 L61.759125,87.0305106 C62.587125,87.0305106 63.259875,86.3572979 63.259875,85.5284681 L63.259875,83.4456809 C63.259875,82.6168511 62.587125,81.9436383 61.759125,81.9436383 L59.682375,81.9436383 C58.8555,81.9436383 58.183875,82.6168511 58.183875,83.4456809 L58.183875,83.4456809 Z M64.814625,83.4456809 L64.814625,85.5284681 C64.814625,86.3572979 65.485125,87.0305106 66.313125,87.0305106 L68.389875,87.0305106 C69.217875,87.0305106 69.888375,86.3572979 69.888375,85.5284681 L69.888375,83.4456809 C69.888375,82.6168511 69.217875,81.9436383 68.389875,81.9436383 L66.313125,81.9436383 C65.485125,81.9436383 64.814625,82.6168511 64.814625,83.4456809 L64.814625,83.4456809 Z M71.44425,83.4456809 L71.44425,85.5284681 C71.44425,86.3572979 72.117,87.0305106 72.94275,87.0305106 L75.02175,87.0305106 C75.84975,87.0305106 76.52025,86.3572979 76.52025,85.5284681 L76.52025,83.4456809 C76.52025,82.6168511 75.84975,81.9436383 75.02175,81.9436383 L72.94275,81.9436383 C72.117,81.9436383 71.44425,82.6168511 71.44425,83.4456809 L71.44425,83.4456809 Z M78.075,83.4456809 L78.075,85.5284681 C78.075,86.3572979 78.7455,87.0305106 79.5735,87.0305106 L81.65025,87.0305106 C82.47825,87.0305106 83.14875,86.3572979 83.14875,85.5284681 L83.14875,83.4456809 C83.14875,82.6168511 82.47825,81.9436383 81.65025,81.9436383 L79.5735,81.9436383 C78.7455,81.9436383 78.075,82.6168511 78.075,83.4456809 L78.075,83.4456809 Z M84.706875,83.4456809 L84.706875,85.5284681 C84.706875,86.3572979 85.377375,87.0305106 86.203125,87.0305106 L88.282125,87.0305106 C89.107875,87.0305106 89.780625,86.3572979 89.780625,85.5284681 L89.780625,83.4456809 C89.780625,82.6168511 89.107875,81.9436383 88.282125,81.9436383 L86.203125,81.9436383 C85.377375,81.9436383 84.706875,82.6168511 84.706875,83.4456809 L84.706875,83.4456809 Z M15.071625,76.5985319 L15.071625,78.6813191 C15.071625,79.5112766 15.74325,80.182234 16.57125,80.182234 L18.649125,80.182234 C19.476,80.182234 20.147625,79.5112766 20.147625,78.6813191 L20.147625,76.5985319 C20.147625,75.7697021 19.476,75.0964894 18.649125,75.0964894 L16.57125,75.0964894 C15.74325,75.0964894 15.071625,75.7685745 15.071625,76.5985319 L15.071625,76.5985319 Z M21.702375,76.5985319 L21.702375,78.6813191 C21.702375,79.5112766 22.372875,80.182234 23.202,80.182234 L25.27875,80.182234 C26.10675,80.182234 26.778375,79.5112766 26.778375,78.6813191 L26.778375,76.5985319 C26.778375,75.7697021 26.107875,75.0964894 25.27875,75.0964894 L23.202,75.0964894 C22.372875,75.0964894 21.702375,75.7685745 21.702375,76.5985319 L21.702375,76.5985319 Z M28.333125,76.5985319 L28.333125,78.6813191 C28.333125,79.5112766 29.00475,80.182234 29.831625,80.182234 L31.9095,80.182234 C32.736375,80.182234 33.408,79.5112766 33.408,78.6813191 L33.408,76.5985319 C33.408,75.7697021 32.7375,75.0964894 31.9095,75.0964894 L29.831625,75.0964894 C29.003625,75.0964894 28.333125,75.7685745 28.333125,76.5985319 L28.333125,76.5985319 Z M34.96275,76.5985319 L34.96275,78.6813191 C34.96275,79.5112766 35.634375,80.182234 36.462375,80.182234 L38.539125,80.182234 C39.367125,80.182234 40.037625,79.5112766 40.037625,78.6813191 L40.037625,76.5985319 C40.037625,75.7697021 39.367125,75.0964894 38.539125,75.0964894 L36.462375,75.0964894 C35.634375,75.0964894 34.96275,75.7685745 34.96275,76.5985319 L34.96275,76.5985319 Z M41.5935,76.5985319 L41.5935,78.6813191 C41.5935,79.5112766 42.264,80.182234 43.092,80.182234 L45.169875,80.182234 C45.99675,80.182234 46.668375,79.5112766 46.668375,78.6813191 L46.668375,76.5985319 C46.668375,75.7697021 45.99675,75.0964894 45.169875,75.0964894 L43.092,75.0964894 C42.264,75.0964894 41.5935,75.7685745 41.5935,76.5985319 L41.5935,76.5985319 Z M48.223125,76.5985319 L48.223125,78.6813191 C48.223125,79.5112766 48.893625,80.182234 49.721625,80.182234 L51.798375,80.182234 C52.62525,80.182234 53.296875,79.5112766 53.296875,78.6813191 L53.296875,76.5985319 C53.296875,75.7697021 52.62525,75.0964894 51.798375,75.0964894 L49.721625,75.0964894 C48.893625,75.0964894 48.223125,75.7685745 48.223125,76.5985319 L48.223125,76.5985319 Z M54.855,76.5985319 L54.855,78.6813191 C54.855,79.5112766 55.5255,80.182234 56.3535,80.182234 L58.43025,80.182234 C59.25825,80.182234 59.92875,79.5112766 59.92875,78.6813191 L59.92875,76.5985319 C59.92875,75.7697021 59.25825,75.0964894 58.43025,75.0964894 L56.3535,75.0964894 C55.524375,75.0964894 54.855,75.7685745 54.855,76.5985319 L54.855,76.5985319 Z M61.4835,76.5985319 L61.4835,78.6813191 C61.4835,79.5112766 62.154,80.182234 62.982,80.182234 L65.061,80.182234 C65.88675,80.182234 66.5595,79.5112766 66.5595,78.6813191 L66.5595,76.5985319 C66.5595,75.7697021 65.88675,75.0964894 65.061,75.0964894 L62.982,75.0964894 C62.154,75.0964894 61.4835,75.7685745 61.4835,76.5985319 L61.4835,76.5985319 Z M68.115375,76.5985319 L68.115375,78.6813191 C68.115375,79.5112766 68.785875,80.182234 69.613875,80.182234 L71.690625,80.182234 C72.518625,80.182234 73.189125,79.5112766 73.189125,78.6813191 L73.189125,76.5985319 C73.189125,75.7697021 72.518625,75.0964894 71.690625,75.0964894 L69.613875,75.0964894 C68.785875,75.0964894 68.115375,75.7685745 68.115375,76.5985319 L68.115375,76.5985319 Z M74.743875,76.5985319 L74.743875,78.6813191 C74.743875,79.5112766 75.416625,80.182234 76.242375,80.182234 L78.321375,80.182234 C79.147125,80.182234 79.819875,79.5112766 79.819875,78.6813191 L79.819875,76.5985319 C79.819875,75.7697021 79.147125,75.0964894 78.321375,75.0964894 L76.242375,75.0964894 C75.416625,75.0964894 74.743875,75.7685745 74.743875,76.5985319 L74.743875,76.5985319 Z M81.37575,76.5985319 L81.37575,78.6813191 C81.37575,79.5112766 82.04625,80.182234 82.87425,80.182234 L84.951,80.182234 C85.779,80.182234 86.4495,79.5112766 86.4495,78.6813191 L86.4495,76.5985319 C86.4495,75.7697021 85.779,75.0964894 84.951,75.0964894 L82.87425,75.0964894 C82.04625,75.0964894 81.37575,75.7685745 81.37575,76.5985319 L81.37575,76.5985319 Z M88.005375,76.5985319 L88.005375,78.6813191 C88.005375,79.5112766 88.675875,80.182234 89.503875,80.182234 L91.580625,80.182234 C92.410875,80.182234 93.079125,79.5112766 93.079125,78.6813191 L93.079125,76.5985319 C93.079125,75.7697021 92.410875,75.0964894 91.580625,75.0964894 L89.503875,75.0964894 C88.67475,75.0964894 88.005375,75.7685745 88.005375,76.5985319 L88.005375,76.5985319 Z M74.743875,90.2928298 L74.743875,92.3744894 C74.743875,93.2044468 75.416625,93.8765319 76.242375,93.8765319 L78.319125,93.8765319 C79.147125,93.8765319 79.819875,93.2044468 79.819875,92.3744894 L79.819875,90.2928298 C79.819875,89.464 79.147125,88.7907872 78.319125,88.7907872 L76.242375,88.7907872 C75.416625,88.7907872 74.743875,89.464 74.743875,90.2928298 L74.743875,90.2928298 Z M81.3735,90.2928298 L81.3735,92.3744894 C81.3735,93.2044468 82.04625,93.8765319 82.872,93.8765319 L84.951,93.8765319 C85.779,93.8765319 86.4495,93.2044468 86.4495,92.3744894 L86.4495,90.2928298 C86.4495,89.464 85.779,88.7907872 84.951,88.7907872 L82.872,88.7907872 C82.04625,88.7907872 81.3735,89.464 81.3735,90.2928298 L81.3735,90.2928298 Z M21.702375,90.2928298 L21.702375,92.3744894 C21.702375,93.2044468 22.372875,93.8765319 23.200875,93.8765319 L25.277625,93.8765319 C26.105625,93.8765319 26.776125,93.2044468 26.776125,92.3744894 L26.776125,90.2928298 C26.776125,89.464 26.105625,88.7907872 25.277625,88.7907872 L23.200875,88.7907872 C22.372875,88.7907872 21.702375,89.464 21.702375,90.2928298 L21.702375,90.2928298 Z M28.333125,90.2928298 L28.333125,92.3744894 C28.333125,93.2044468 29.003625,93.8765319 29.831625,93.8765319 L31.908375,93.8765319 C32.73525,93.8765319 33.406875,93.2044468 33.406875,92.3744894 L33.406875,90.2928298 C33.406875,89.464 32.73525,88.7907872 31.908375,88.7907872 L29.831625,88.7907872 C29.003625,88.7907872 28.333125,89.464 28.333125,90.2928298 L28.333125,90.2928298 Z M34.96275,90.2928298 L34.96275,92.3744894 C34.96275,93.2044468 35.63325,93.8765319 36.46125,93.8765319 L38.538,93.8765319 C39.366,93.8765319 40.037625,93.2044468 40.037625,92.3744894 L40.037625,90.2928298 C40.037625,89.464 39.366,88.7907872 38.538,88.7907872 L36.46125,88.7907872 C35.63325,88.7907872 34.96275,89.464 34.96275,90.2928298 L34.96275,90.2928298 Z M41.592375,90.2928298 L41.592375,92.3744894 C41.592375,93.2044468 42.262875,93.8765319 43.092,93.8765319 L45.16875,93.8765319 C45.99675,93.8765319 46.668375,93.2044468 46.668375,92.3744894 L46.668375,90.2928298 C46.668375,89.464 45.99675,88.7907872 45.16875,88.7907872 L43.092,88.7907872 C42.262875,88.7907872 41.592375,89.464 41.592375,90.2928298 L41.592375,90.2928298 Z M48.223125,90.2928298 L48.223125,92.3744894 C48.223125,93.2044468 48.89475,93.8765319 49.721625,93.8765319 L51.7995,93.8765319 C52.626375,93.8765319 53.298,93.2044468 53.298,92.3744894 L53.298,90.2928298 C53.298,89.464 52.626375,88.7907872 51.7995,88.7907872 L49.721625,88.7907872 C48.893625,88.7907872 48.223125,89.464 48.223125,90.2928298 L48.223125,90.2928298 Z M54.85275,90.2928298 L54.85275,92.3744894 C54.85275,93.2044468 55.5255,93.8765319 56.3535,93.8765319 L58.43025,93.8765319 C59.25825,93.8765319 59.92875,93.2044468 59.92875,92.3744894 L59.92875,90.2928298 C59.92875,89.464 59.25825,88.7907872 58.43025,88.7907872 L56.3535,88.7907872 C55.524375,88.7907872 54.85275,89.464 54.85275,90.2928298 L54.85275,90.2928298 Z M61.48125,90.2928298 L61.48125,92.3744894 C61.48125,93.2044468 62.154,93.8765319 62.982,93.8765319 L65.05875,93.8765319 C65.88675,93.8765319 66.55725,93.2044468 66.55725,92.3744894 L66.55725,90.2928298 C66.55725,89.464 65.88675,88.7907872 65.05875,88.7907872 L62.982,88.7907872 C62.154,88.7907872 61.48125,89.464 61.48125,90.2928298 L61.48125,90.2928298 Z M68.113125,90.2928298 L68.113125,92.3744894 C68.113125,93.2044468 68.785875,93.8765319 69.613875,93.8765319 L71.690625,93.8765319 C72.518625,93.8765319 73.186875,93.2044468 73.186875,92.3744894 L73.186875,90.2928298 C73.186875,89.464 72.518625,88.7907872 71.690625,88.7907872 L69.613875,88.7907872 C68.785875,88.7907872 68.113125,89.464 68.113125,90.2928298 L68.113125,90.2928298 Z M86.106375,39.1951915 L80.14725,39.1951915 C79.857,39.7454894 79.299,40.1537021 78.4665,40.1537021 L73.4175,40.1537021 C72.58725,40.1537021 72.027,39.7454894 71.73675,39.1951915 L36.31725,39.1951915 C36.028125,39.7454894 35.467875,40.1537021 34.6365,40.1537021 L29.5875,40.1537021 C28.755,40.1537021 28.195875,39.7454894 27.90675,39.1951915 L22.078125,39.1951915 L22.084875,49.4805745 L44.033625,49.4805745 C46.83825,49.4805745 49.111875,51.5870426 49.111875,54.1840426 C49.111875,56.7810426 46.83825,58.889766 44.033625,58.889766 L36.37575,58.8852553 C33.571125,58.8852553 31.2975,60.9894681 31.2975,63.5887234 C31.2975,66.1868511 33.571125,68.2921915 36.37575,68.2921915 L71.80875,68.2921915 C74.61225,68.2921915 76.887,66.1868511 76.887,63.5887234 C76.887,60.9894681 74.613375,58.8852553 71.80875,58.8852553 L64.148625,58.889766 C61.345125,58.889766 59.070375,56.7821702 59.070375,54.1840426 C59.070375,51.5859149 61.344,49.4805745 64.148625,49.4805745 L86.097375,49.4805745 L86.106375,39.1951915 L86.106375,39.1951915 Z M86.13225,2.19217021 L22.05675,2.19217021 L22.078125,37.2804255 L27.907875,37.2804255 C28.197,36.7312553 28.756125,36.3219149 29.588625,36.3219149 L34.637625,36.3219149 C35.469,36.3219149 36.02925,36.7312553 36.318375,37.2804255 L71.73675,37.2804255 C72.027,36.7312553 72.58725,36.3219149 73.4175,36.3219149 L78.4665,36.3219149 C79.299,36.3219149 79.857,36.7312553 80.14725,37.2804255 L86.108625,37.2804255 L86.13225,2.19217021 L86.13225,2.19217021 Z M3.37275,33.1238723 C2.3175,33.1238723 1.4625,33.9820213 1.4625,35.039766 L1.4625,36.5587234 L11.457,36.5587234 L11.457,33.125 L3.37275,33.125 L3.37275,33.1238723 Z M104.62725,33.1238723 L96.543,33.1238723 L96.543,36.5575957 L106.538625,36.5575957 L106.538625,35.0386383 C106.538625,33.9808936 105.681375,33.1238723 104.62725,33.1238723 L104.62725,33.1238723 Z M96.510375,27.672766 L96.505875,31.687234 L104.62725,31.687234 C106.473375,31.687234 107.971875,33.1881489 107.971875,35.039766 L107.971875,44.0745745 C107.971875,45.9261915 106.473375,47.4271064 104.62725,47.4271064 L96.505875,47.4271064 L96.503625,96.2953617 C96.503625,101.275106 92.478375,105.309872 87.512625,105.309872 L54,105.309872 L20.4885,105.309872 C15.521625,105.309872 11.496375,101.275106 11.496375,96.2953617 L11.496375,47.4259787 L3.37275,47.4259787 C1.5255,47.4259787 0.02925,45.9250638 0.02925,44.0734468 L0.02925,35.0386383 C0.02925,33.1870213 1.526625,31.6861064 3.37275,31.6861064 L11.494125,31.6861064 L11.489625,27.6716383 C11.489625,26.6138936 12.34575,25.7568723 13.401,25.7568723 L20.55825,25.7568723 L20.55825,0.689 L54,0.689 L87.44175,0.689 L87.44175,25.7568723 L94.597875,25.7568723 C95.655375,25.758 96.510375,26.6150213 96.510375,27.672766 L96.510375,27.672766 Z" id="Shape"></path>
        </g>
        <text id="Typings" font-family="Helvetica-Bold, Helvetica" font-size="64" font-weight="bold" fill="#000000">
            <tspan x="116.6875" y="62">Typings</tspan>
        </text>
        <text id="The-TypeScript-Defin" font-family="Helvetica-Light, Helvetica" font-size="15.876" font-weight="300" fill="#000000">
            <tspan x="115.088102" y="100">The TypeScript Definition Manager</tspan>
        </text>
    </g>
</svg>